#!OML:ASF H:\Dans Jumps\Project 1\Capture day 1\Session 1\subject.ASF
:FULLY-SPECIFIED
:DEGREES
178
root 0.81996 17.5612 -14.0638 7.31652 -0.56719 -1.44244
lowerback -2.48708 -0.975937 0.287293
upperback 3.12342 -1.39834 1.92437
thorax 4.66023 -0.721571 1.73665
lowerneck -13.6099 0.132191 -2.22291
upperneck 28.1474 0.91321 -0.534183
head 11.3886 0.103673 0.309585
rclavicle -8.15017e-015 -5.1684e-015
rhumerus -23.2406 -19.0746 -78.2137
rradius 25.3478
rwrist 32.9991
rhand -17.8466 -26.1214
rfingers 7.12502
rthumb 8.41834 -55.9337
lclavicle -8.15017e-015 -5.1684e-015
lhumerus -19.6436 3.27924 86.1134
lradius 18.2065
lwrist -0.490052
lhand -24.0489 -3.27624
lfingers 7.12502
lthumb 2.43012 26.6897
rfemur -14.0608 -2.37388 19.0213
rtibia 20.2575
rfoot -12.8653 -4.15691
rtoes 11.1497
lfemur -13.162 8.48707 -18.391
ltibia 17.8918
lfoot -10.1901 4.83494
ltoes -8.51104
179
root 0.819799 17.5605 -14.0677 7.32264 -0.537848 -1.44917
lowerback -2.4429 -0.975533 0.291507
upperback 3.13043 -1.39782 1.93303
thorax 4.64252 -0.721344 1.74394
lowerneck -13.617 0.135973 -2.21031
upperneck 28.144 0.9164 -0.536813
head 11.3888 0.106217 0.306918
rclavicle 2.28602e-015 -2.34566e-014
rhumerus -23.2397 -19.0753 -78.1963
rradius 25.3372
rwrist 33.0187
rhand -17.834 -26.1452
rfingers 7.12502
rthumb 8.4305 -55.9569
lclavicle 2.28602e-015 -2.34566e-014
lhumerus -19.6288 3.22082 86.1313
lradius 18.2293
lwrist -0.44575
lhand -24.0539 -3.27314
lfingers 7.12502
lthumb 2.42527 26.6928
rfemur -14.0957 -2.4016 19.0322
rtibia 20.2902
rfoot -12.8684 -4.15567
rtoes 11.1585
lfemur -13.2229 8.48415 -18.3877
ltibia 17.9564
lfoot -10.1983 4.81824
ltoes -8.56479
180
root 0.819516 17.5595 -14.0715 7.32886 -0.514111 -1.46154
lowerback -2.39842 -0.972716 0.299045
upperback 3.13802 -1.39429 1.94311
thorax 4.62511 -0.719537 1.75103
lowerneck -13.6238 0.139555 -2.19639
upperneck 28.1408 0.919167 -0.540197
head 11.389 0.108617 0.30369
rclavicle 1.94809e-014 -1.31198e-014
rhumerus -23.2347 -19.0816 -78.1791
rradius 25.3234
rwrist 33.0444
rhand -17.8326 -26.1585
rfingers 7.12502
rthumb 8.43188 -55.9702
lclavicle 1.94809e-014 -1.31198e-014
lhumerus -19.6153 3.16522 86.1481
lradius 18.2525
lwrist -0.406651
lhand -24.0605 -3.25656
lfingers 7.12502
lthumb 2.4189 26.7095
rfemur -14.1339 -2.42164 19.0494
rtibia 20.3268
rfoot -12.8725 -4.15561
rtoes 11.1676
lfemur -13.2905 8.48776 -18.3786
ltibia 18.0328
lfoot -10.2092 4.80645
ltoes -8.63993
181
root 0.819045 17.5582 -14.0753 7.33491 -0.493133 -1.48069
lowerback -2.35379 -0.968278 0.31116
upperback 3.14587 -1.38887 1.9549
thorax 4.60777 -0.716666 1.75746
lowerneck -13.6249 0.141379 -2.18504
upperneck 28.135 0.919545 -0.542445
head 11.387 0.109859 0.300977
rclavicle -7.95139e-015 -9.54166e-015
rhumerus -23.2283 -19.0898 -78.1625
rradius 25.3104
rwrist 33.0715
rhand -17.8348 -26.1666
rfingers 7.12502
rthumb 8.42977 -55.9784
lclavicle -7.95139e-015 -9.54166e-015
lhumerus -19.6005 3.11535 86.1623
lradius 18.271
lwrist -0.377806
lhand -24.0705 -3.24763
lfingers 7.12502
lthumb 2.40929 26.7185
rfemur -14.1745 -2.43115 19.0744
rtibia 20.3674
rfoot -12.8776 -4.16379
rtoes 11.1627
lfemur -13.3645 8.49793 -18.3618
ltibia 18.1205
lfoot -10.2239 4.79548
ltoes -8.72557
182
root 0.818422 17.5568 -14.0792 7.34142 -0.476631 -1.5039
lowerback -2.30994 -0.962716 0.324249
upperback 3.15457 -1.38207 1.96828
thorax 4.59175 -0.713114 1.76504
lowerneck -13.6257 0.143072 -2.17342
upperneck 28.1281 0.920507 -0.547671
head 11.3845 0.111034 0.297199
rclavicle 7.7526e-015 -1.78906e-014
rhumerus -23.216 -19.0994 -78.1467
rradius 25.2943
rwrist 33.0995
rhand -17.8395 -26.1681
rfingers 7.12502
rthumb 8.42522 -55.98
lclavicle 7.7526e-015 -1.78906e-014
lhumerus -19.5845 3.07347 86.1737
lradius 18.285
lwrist -0.356416
lhand -24.0805 -3.24457
lfingers 7.12502
lthumb 2.39959 26.7217
rfemur -14.2183 -2.43309 19.1042
rtibia 20.4121
rfoot -12.8825 -4.17552
rtoes 11.1504
lfemur -13.4446 8.51262 -18.3401
ltibia 18.2183
lfoot -10.2419 4.78622
ltoes -8.81369
183
root 0.817615 17.5553 -14.0831 7.34986 -0.462904 -1.53152
lowerback -2.26962 -0.955876 0.340236
upperback 3.16414 -1.37377 1.98203
thorax 4.57852 -0.708728 1.7714
lowerneck -13.6248 0.143556 -2.16269
upperneck 28.1193 0.9197 -0.552225
head 11.381 0.111427 0.293575
rclavicle 5.86415e-015 7.95139e-015
rhumerus -23.1979 -19.1125 -78.1341
rradius 25.2771
rwrist 33.1249
rhand -17.8392 -26.1737
rfingers 7.12502
rthumb 8.42555 -55.9856
lclavicle 5.86415e-015 7.95139e-015
lhumerus -19.5663 3.0364 86.1814
lradius 18.2959
lwrist -0.340211
lhand -24.0861 -3.24352
lfingers 7.12502
lthumb 2.39417 26.7228
rfemur -14.267 -2.42853 19.1395
rtibia 20.4611
rfoot -12.8881 -4.19077
rtoes 11.1267
lfemur -13.5313 8.52504 -18.3128
ltibia 18.3248
lfoot -10.2611 4.78322
ltoes -8.90741
184
root 0.816712 17.5537 -14.0869 7.35875 -0.450471 -1.55903
lowerback -2.23037 -0.949318 0.35494
upperback 3.17349 -1.36577 1.99557
thorax 4.56572 -0.704536 1.77822
lowerneck -13.6201 0.144158 -2.15641
upperneck 28.1096 0.918911 -0.552765
head 11.3764 0.111872 0.292178
rclavicle -3.00165e-014 2.90226e-014
rhumerus -23.1761 -19.1237 -78.1239
rradius 25.2592
rwrist 33.1458
rhand -17.8387 -26.1755
rfingers 7.12502
rthumb 8.42596 -55.9874
lclavicle -3.00165e-014 2.90226e-014
lhumerus -19.55 3.00187 86.186
lradius 18.3059
lwrist -0.322951
lhand -24.085 -3.24273
lfingers 7.12502
lthumb 2.39529 26.7236
rfemur -14.3182 -2.42413 19.1749
rtibia 20.5144
rfoot -12.8955 -4.20418
rtoes 11.0949
lfemur -13.6213 8.53513 -18.2844
ltibia 18.4387
lfoot -10.283 4.78091
ltoes -8.97804
185
root 0.815688 17.5521 -14.0908 7.36824 -0.440712 -1.58729
lowerback -2.19345 -0.942031 0.369335
upperback 3.18442 -1.35683 2.00876
thorax 4.55586 -0.699889 1.78488
lowerneck -13.6165 0.144273 -2.15078
upperneck 28.0997 0.917759 -0.553759
head 11.3718 0.112026 0.290679
rclavicle 1.39149e-015 -7.95139e-015
rhumerus -23.15 -19.1343 -78.1177
rradius 25.2446
rwrist 33.1605
rhand -17.8385 -26.1777
rfingers 7.12502
rthumb 8.42615 -55.9896
lclavicle 1.39149e-015 -7.95139e-015
lhumerus -19.5301 2.97202 86.1873
lradius 18.3127
lwrist -0.308791
lhand -24.0753 -3.23309
lfingers 7.12502
lthumb 2.40466 26.7331
rfemur -14.3726 -2.42034 19.2117
rtibia 20.5713
rfoot -12.9033 -4.21429
rtoes 11.0582
lfemur -13.7137 8.5431 -18.2542
ltibia 18.5592
lfoot -10.3073 4.78047
ltoes -9.02844
186
root 0.814651 17.5503 -14.0947 7.37792 -0.431781 -1.61656
lowerback -2.15722 -0.934567 0.385745
upperback 3.19553 -1.34771 2.02117
thorax 4.54651 -0.695069 1.78957
lowerneck -13.6089 0.144597 -2.14606
upperneck 28.0878 0.916584 -0.55337
head 11.3658 0.112279 0.289825
rclavicle -5.96354e-015 -3.97569e-016
rhumerus -23.1236 -19.1416 -78.1149
rradius 25.2349
rwrist 33.1669
rhand -17.841 -26.1767
rfingers 7.12502
rthumb 8.42375 -55.9887
lclavicle -5.96354e-015 -3.97569e-016
lhumerus -19.5107 2.94929 86.1846
lradius 18.3177
lwrist -0.299727
lhand -24.0649 -3.22733
lfingers 7.12502
lthumb 2.41469 26.7387
rfemur -14.4294 -2.42294 19.25
rtibia 20.6315
rfoot -12.9125 -4.2166
rtoes 11.0252
lfemur -13.8071 8.54692 -18.2219
ltibia 18.6851
lfoot -10.3353 4.78099
ltoes -9.05009
187
root 0.813542 17.5486 -14.0985 7.38975 -0.425562 -1.64561
lowerback -2.12293 -0.926684 0.402175
upperback 3.20643 -1.338 2.03251
thorax 4.53799 -0.689934 1.79315
lowerneck -13.6056 0.146593 -2.13524
upperneck 28.0797 0.917686 -0.557425
head 11.362 0.113588 0.286622
rclavicle 1.51076e-014 -9.93923e-015
rhumerus -23.0963 -19.1491 -78.1154
rradius 25.2296
rwrist 33.1737
rhand -17.8447 -26.172
rfingers 7.12502
rthumb 8.42018 -55.9842
lclavicle 1.51076e-014 -9.93923e-015
lhumerus -19.4911 2.93399 86.1775
lradius 18.3208
lwrist -0.29477
lhand -24.0548 -3.22654
lfingers 7.12502
lthumb 2.42442 26.7394
rfemur -14.4903 -2.42983 19.2887
rtibia 20.6942
rfoot -12.9221 -4.21337
rtoes 10.9869
lfemur -13.9038 8.5518 -18.19
ltibia 18.8155
lfoot -10.3671 4.78194
ltoes -9.05944
188
root 0.812383 17.5467 -14.1024 7.40162 -0.420248 -1.67271
lowerback -2.0865 -0.918851 0.417514
upperback 3.21578 -1.32815 2.04208
thorax 4.52662 -0.684725 1.79555
lowerneck -13.602 0.149511 -2.1175
upperneck 28.0756 0.920179 -0.567764
head 11.3598 0.115425 0.280118
rclavicle -3.8763e-015 7.95139e-015
rhumerus -23.0727 -19.1475 -78.1197
rradius 25.2309
rwrist 33.1694
rhand -17.8535 -26.1599
rfingers 7.12502
rthumb 8.41169 -55.9724
lclavicle -3.8763e-015 7.95139e-015
lhumerus -19.476 2.92609 86.1655
lradius 18.3225
lwrist -0.293295
lhand -24.0492 -3.22618
lfingers 7.12502
lthumb 2.42987 26.7397
rfemur -14.5533 -2.44264 19.3259
rtibia 20.7596
rfoot -12.9331 -4.20529
rtoes 10.9459
lfemur -14.0003 8.55673 -18.1603
ltibia 18.9475
lfoot -10.4018 4.78261
ltoes -9.06305
189
root 0.811178 17.5449 -14.1061 7.41407 -0.417734 -1.69865
lowerback -2.05089 -0.910606 0.432761
upperback 3.22508 -1.31767 2.04982
thorax 4.51561 -0.67917 1.79612
lowerneck -13.601 0.152449 -2.0933
upperneck 28.0744 0.922881 -0.584105
head 11.3593 0.117247 0.270344
rclavicle -1.76918e-014 8.74653e-015
rhumerus -23.0489 -19.1443 -78.1273
rradius 25.2356
rwrist 33.1662
rhand -17.8626 -26.1444
rfingers 7.12502
rthumb 8.4029 -55.9573
lclavicle -1.76918e-014 8.74653e-015
lhumerus -19.462 2.93096 86.1479
lradius 18.3216
lwrist -0.300718
lhand -24.0536 -3.22669
lfingers 7.12502
lthumb 2.42557 26.7393
rfemur -14.6189 -2.45628 19.3621
rtibia 20.8285
rfoot -12.9461 -4.19461
rtoes 10.9103
lfemur -14.0958 8.56293 -18.1321
ltibia 19.0784
lfoot -10.4375 4.78466
ltoes -9.06666
190
root 0.809988 17.543 -14.1096 7.42449 -0.417182 -1.71962
lowerback -2.01303 -0.902228 0.444736
upperback 3.2335 -1.3067 2.05473
thorax 4.50237 -0.673419 1.79565
lowerneck -13.5999 0.155138 -2.06551
upperneck 28.0765 0.925356 -0.603948
head 11.3601 0.118866 0.258643
rclavicle 2.28602e-015 1.82882e-014
rhumerus -23.0291 -19.1369 -78.1367
rradius 25.244
rwrist 33.1609
rhand -17.8688 -26.1346
rfingers 7.12502
rthumb 8.39695 -55.9477
lclavicle 2.28602e-015 1.82882e-014
lhumerus -19.4532 2.93928 86.1263
lradius 18.3188
lwrist -0.305861
lhand -24.0651 -3.22538
lfingers 7.12502
lthumb 2.41453 26.7407
rfemur -14.684 -2.47193 19.3926
rtibia 20.9015
rfoot -12.9622 -4.18201
rtoes 10.8733
lfemur -14.1856 8.56893 -18.1093
ltibia 19.2053
lfoot -10.4738 4.78758
ltoes -9.0676
